<?xml version="1.0" standalone="no"?><!DOCTYPE svg PUBLIC "-//W3C//DTD SVG 1.1//EN" "http://www.w3.org/Graphics/SVG/1.1/DTD/svg11.dtd"><svg t="1673515850106" class="icon" viewBox="0 0 1024 1024" version="1.1" xmlns="http://www.w3.org/2000/svg" p-id="2842" xmlns:xlink="http://www.w3.org/1999/xlink" width="200" height="200"><path d="M854.85062235 831.68014735c-30.77328712-29.32513243-120.55887777-116.2144137-216.86116451-211.06854576L869.33216923 702.79438013c-3.62038672 59.3743422-10.49912149 106.07733089-14.48154688 128.88576722zM730.67135787 861.00527978l-99.92267346-223.73989928c94.13005471 92.68190002 181.38137466 176.31283325 212.15466177 206.36204302-39.46221524 8.32688946-77.11423713 14.11950821-112.23198831 17.37785626zM277.03690189 745.51494342c-10.86116016-9.41300547-20.27416563-20.99824297-29.6871711-33.30755782-2.17223203-2.89630938-4.70650274-6.15465742-6.87873477-9.0509668-25.34270704-31.85940313-45.97891134-61.90861291-62.27065157-90.50966799 39.10017657-123.09314847 90.14762932-184.27768403 125.98945784-213.60281646 26.06678438-20.99824297 47.7891047-28.96309376 59.73638088-32.22144181-4.70650274 58.28822619-27.1529004 333.43761688-38.73813791 413.08612472-20.27416563-12.30931485-36.2038672-24.61862969-48.15114337-34.39367384z" fill="#9cc97c" p-id="2843"></path><path d="M376.95957536 177.83830577c-10.13708282 8.68892813-18.82601094 18.1019336-26.79086173 28.23901642l-13.39543086-9.77504415c5.06854141-7.24077344 10.86116016-13.75746953 17.37785625-20.27416563 3.62038672-3.62038672 7.60281211-7.60281211 11.58523751-10.86116015l11.22319883 12.67135351zM457.6941992 494.62214375l-16.29174023 4.70650273c-6.15465742-18.46397227-10.86116016-34.75571251-15.20562423-47.7891047l16.65377891-3.62038672c3.98242539 13.39543086 9.0509668 29.32513243 14.84358555 46.70298869z" fill="#848ec8" p-id="2844" data-spm-anchor-id="a313x.7781069.0.i27" class="selected"></path><path d="M561.23725939 860.28120243c-10.86116016-69.51142502-68.78734767-256.32337975-103.54306019-364.93498134-5.43058008-17.73989493-10.49912149-33.66959649-15.20562422-46.34095001 46.34095001 47.7891047 101.00878948 103.18102151 155.31459028 156.76274496l115.12829768 257.77153444c-55.75395548 3.62038672-106.43936956 2.17223203-151.69420355-3.25834805zM429.09314412 409.54305583c-14.84358555-15.56766289-28.23901641-29.6871711-40.18629259-43.08260196C475.7961328 367.90860856 753.84183287 323.73989058 799.45870554 316.49911714c35.47978985 62.27065158 54.3058008 133.95430863 63.71880627 200.56942427-118.38664573-22.08435899-395.34622979-78.92443049-434.08436769-107.52548558zM167.33918429 592.37258518c-1.08611602-1.81019336-1.81019336-3.98242539-2.53427071-5.43058008-6.87873477-14.84358555-12.67135352-29.32513243-16.65377891-43.44464064-11.94727617-40.18629259-11.5852375-76.02812111 0.36203867-107.52548557 36.92794454-94.85413206 173.77856254-116.57645237 175.22671724-116.57645238l1.81019336-0.36203867c4.34446406 5.06854141 9.0509668 10.49912149 13.75746953 15.92970157 3.98242539 5.43058008 9.41300547 11.5852375 15.20562422 18.1019336-18.1019336 5.79261875-47.42706603 19.18804961-80.0105465 51.77153009-36.2038672 34.75571251-75.30404377 92.68190002-107.1634469 187.53603208zM609.38840276 592.73462385c-52.49560744-51.77153009-105.35325354-105.35325354-150.60808754-152.05624223 105.71529221 36.2038672 361.6766333 85.07908791 406.20738995 93.40597737 2.5342707 22.08435899 3.98242539 43.80667931 5.06854141 64.44288361 1.44815469 30.41124845 1.08611602 59.73638087 0 86.88928127l-260.66784382-92.68190002z" fill="#9cc97c" p-id="2845" data-spm-anchor-id="a313x.7781069.0.i16" class=""></path><path d="M277.03690189 745.51494342c11.94727617 9.77504414 27.87697774 22.08435899 48.15114337 35.11775118 11.22319883-79.28646916 34.39367384-354.43585986 38.73813791-413.08612472-11.94727617 3.25834805-33.66959649 11.22319883-59.73638088 32.22144181-35.84182852 29.32513243-87.25131994 90.14762932-125.98945784 213.60281646 15.92970157 28.23901641 36.56590587 58.28822619 62.27065157 90.50966799 2.17223203 2.89630938 4.70650274 6.15465742 6.87873477 9.0509668 9.41300547 11.5852375 18.46397227 22.80843633 29.6871711 32.58348048z m565.86644429 98.1124801c-31.13532579-29.6871711-117.66256839-113.31810433-212.15466177-206.36204302L730.67135787 861.00527978c35.11775118-3.25834805 72.76977307-9.0509668 112.23198831-17.37785626z m-463.40950012-461.96134543c-6.5166961 81.09666252-28.23901641 341.04042899-38.7381379 408.01758331 47.42706603 27.1529004 114.40422034 55.02987814 203.10369497 68.425309C531.18804961 786.78735202 475.43409413 605.76801604 441.76449764 499.69068515l16.29174024-4.70650273c35.11775118 108.97364026 92.68190002 296.14763367 103.54306018 364.93498134 45.254834 5.43058008 95.94024807 6.87873477 152.05624223 2.89630938L597.80316526 605.0439387c-54.3058008-53.58172345-108.97364026-108.97364026-155.31459028-156.76274497l-16.65377891 3.62038672c-5.43058008-16.29174024-8.68892813-27.51493907-10.49912149-31.49736446-12.30931485-13.75746953-24.61862969-26.79086173-35.84182852-38.7381379z m79.64850783 59.3743422c45.254834 46.70298868 98.1124801 99.56063479 150.60808754 152.05624223l260.66784382 92.68190002c1.08611602-27.1529004 1.44815469-56.47803283 0-86.88928127-0.72407734-20.27416563-2.17223203-41.99648595-5.06854141-64.44288361-44.53075665-8.32688946-300.49209773-57.20211017-406.20738995-93.40597737z m404.03515792 76.02812112c-9.41300547-66.61511564-27.87697774-137.93673402-63.71880627-200.56942427-45.61687267 7.24077344-323.66257274 51.40949142-410.55185401 49.96133673 11.5852375 13.03339219 25.34270704 27.51493907 40.18629259 43.08260196 38.7381379 28.60105509 315.69772196 85.44112658 434.08436769 107.52548558z m-149.52197152-301.57821375c-26.42882305-20.6362043-52.49560744-37.28998321-77.47627581-49.23725939-25.34270704 5.79261875-212.15466177 52.85764611-252.34095436 183.55360669 71.32161838 3.98242539 344.29877704-38.7381379 406.20738995-48.51318205-20.27416563-31.85940313-45.254834-61.18453556-76.39015978-85.80316525z m-75.66608245 405.12127393c96.30228674 94.85413206 186.08787739 181.74341333 216.86116451 211.06854576 3.98242539-22.80843633 11.22319883-69.87346369 14.48154688-128.88576722l-231.34271139-82.18277854zM352.34094566 324.10192925c4.34446406 5.79261875 10.13708282 12.30931485 15.92970157 19.55008829 19.18804961-60.46045822 69.87346369-112.59402698 147.34973949-151.69420356 37.65202188-18.82601094 73.49385041-30.77328712 95.5782094-36.92794454-93.40597737-37.65202188-172.69244653-21.36028165-223.01582193 13.75746953-4.34446406 2.89630938-7.96485078 5.79261875-11.94727618 9.0509668l-11.22319883-12.67135351c4.34446406-3.62038672 8.68892813-7.24077344 13.03339219-10.13708282 72.76977307-51.04745275 201.65554029-65.52899963 345.02285439 47.42706603 55.39191681 43.80667931 97.38840276 105.35325354 124.90334183 182.82952934 21.72232032 61.54657423 34.75571251 133.23023128 38.01406055 213.24077779 5.79261875 136.12654066-18.46397227 250.16872233-18.46397227 251.61687702l-1.08611601 5.43058008-5.43058008 1.08611601C521.77504414 934.49913019 332.06678003 813.57821375 266.17574173 758.54833561c-12.67135352-10.49912149-22.44639766-23.17047501-31.85940313-35.47978985-2.17223203-2.89630938-4.70650274-6.15465742-6.87873477-9.0509668-34.03163516-42.72056329-60.09841955-82.54481721-77.4762758-120.1968391l15.20562423-7.24077343c1.08611602 1.81019336 1.81019336 3.98242539 2.5342707 5.43058007 31.85940313-94.85413206 70.95957971-152.78031957 106.07733089-187.89807075 32.58348048-32.58348048 61.90861291-45.97891134 80.0105465-51.77153009-5.79261875-6.5166961-10.49912149-12.67135352-15.20562422-18.1019336-4.34446406-5.79261875-8.68892813-10.86116016-13.75746954-15.92970156l-1.81019336 0.36203867c-1.44815469 0-138.29877269 22.44639766-175.22671723 116.57645237-12.30931485 31.13532579-12.30931485 67.33919299-0.36203867 107.52548558l-15.92970157 5.0685414c-13.03339219-44.16871798-12.67135352-83.63093322 0.72407735-118.7486844 35.11775118-89.42355198 145.53954613-118.74868441 179.20914262-125.62741917-80.73462385-81.45870119-171.60633051-100.64675081-172.33040786-100.64675081l3.25834805-16.29174024c4.34446406 0.72407734 86.5272426 17.73989493 166.17575043 90.87170667 0-27.51493907 9.77504414-56.11599415 28.23901642-81.09666253l13.39543086 9.77504415c-20.27416563 27.51493907-28.96309376 59.3743422-23.17047501 89.0615133 8.32688946 9.0509668 17.01581758 18.46397227 25.34270704 28.96309376z" fill="#848ec8" p-id="2846" data-spm-anchor-id="a313x.7781069.0.i17" class="selected"></path><path d="M368.27064723 343.65201754c-6.5166961-7.24077344-11.5852375-13.75746953-15.92970157-19.55008829-8.32688946-10.49912149-16.65377891-20.27416563-25.34270704-28.96309376-5.79261875-29.6871711 2.89630938-61.54657423 23.17047501-89.0615133 7.24077344-10.13708282 15.92970157-19.55008829 26.79086173-28.23901642 3.98242539-3.25834805 7.60281211-6.15465742 11.94727617-9.0509668 50.3233754-35.11775118 129.60984456-51.40949142 223.01582193-13.75746953-22.44639766 6.5166961-57.92618751 18.1019336-95.5782094 36.92794454-78.20035314 39.10017657-128.88576722 91.23374534-148.07381683 151.69420356z" fill="#9cc97c" p-id="2847"></path><path d="M164.44287491 586.57996643l-15.20562422 7.24077343c-7.60281211-15.56766289-13.39543086-30.77328712-17.37785626-45.61687266l15.92970157-5.06854141c3.98242539 14.11950821 9.77504414 28.60105509 16.65377891 43.44464064z" fill="#848ec8" p-id="2848" data-spm-anchor-id="a313x.7781069.0.i18" class="selected"></path><path d="M383.83831012 349.80667496c40.18629259-130.69596058 226.99824732-177.76098794 252.34095436-183.55360669 24.98066837 12.67135352 51.04745275 28.60105509 77.47627581 49.23725939 31.13532579 24.61862969 55.75395548 53.58172345 76.02812111 85.44112658-61.54657423 10.13708282-334.5237329 52.85764611-405.84535128 48.87522072zM543.49736446 857.74693173c-88.33743596-13.03339219-155.31459027-40.91036993-203.10369497-68.425309 10.49912149-66.97715431 32.22144181-326.92092079 38.7381379-408.01758331 11.22319883 11.94727617 23.17047501 25.34270704 36.20386719 39.10017657l10.49912149 31.49736446c4.34446406 13.03339219 9.41300547 28.96309376 15.20562422 47.7891047 34.39367384 106.07733089 90.14762932 287.09666687 102.45694417 358.05624658z" fill="#9cc97c" p-id="2849"></path></svg>