<?xml version="1.0" standalone="no"?><!DOCTYPE svg PUBLIC "-//W3C//DTD SVG 1.1//EN" "http://www.w3.org/Graphics/SVG/1.1/DTD/svg11.dtd"><svg t="1673521964997" class="icon" viewBox="0 0 1024 1024" version="1.1" xmlns="http://www.w3.org/2000/svg" p-id="18649" xmlns:xlink="http://www.w3.org/1999/xlink" width="200" height="200"><path d="M63.872 270.250667l42.922667-73.770667c130.389333 75.861333 256.469333 75.861333 384.597333 0.170667 154.88-91.52 313.301333-91.52 468.906667-0.085334l-43.264 73.6c-128.853333-75.776-254.122667-75.776-382.208-0.085333-154.88 91.52-313.941333 91.52-470.954667 0.170667z m0 256l42.922667-73.770667c130.389333 75.861333 256.469333 75.861333 384.597333 0.170667 154.88-91.52 313.301333-91.52 468.906667-0.085334l-43.264 73.6c-128.853333-75.776-254.122667-75.776-382.208-0.085333-154.88 91.52-313.941333 91.52-470.954667 0.170667z m0 256l42.922667-73.770667c130.389333 75.861333 256.469333 75.861333 384.597333 0.170667 154.88-91.52 313.301333-91.52 468.906667-0.085334l-43.264 73.6c-128.853333-75.776-254.122667-75.776-382.208-0.085333-154.88 91.52-313.941333 91.52-470.954667 0.170667z" fill="#a5cfd8" p-id="18650" data-spm-anchor-id="a313x.7781069.0.i63" class=""></path></svg>